# xmcd
#
# Track frame offsets: 
#        150
#        10827
#        24780
#        36735
#        49680
#        62480
#        74280
#        86600
#        101292
#        114020
#        128677
#        140582
#        153825
#        166820
#        180885
#        194085
#        217205
#        243540
#        257365
#        271837
#        298597
#
# Disc length: 4145 seconds
#
# Revision: 6
# Processed by: cddbd v1.5.2PL0 Copyright (c) Steve Scherf et al.
# Submitted via: ExactAudioCopyFreeDBPlugin 1.0
#
DISCID=1b102f15
DTITLE=Howlin' Wolf - Howlin' Wolf:  The Chess Box, 1951-1973 [box set
DTITLE=]
DYEAR=1991
DGENRE=Blues
TTITLE0=Hidden Charms
TTITLE1=Three Hundred Pounds of Joy
TTITLE2=Built for Comfort
TTITLE3=Love Me Darlin'
TTITLE4=Killing Floor
TTITLE5=My Country Sugar Mama
TTITLE6=Louise
TTITLE7=I Walked from Dallas
TTITLE8=Tell Me What I've Done
TTITLE9=Don't Laugh at Me
TTITLE10=Ooh Baby (Hold Me)
TTITLE11=New Crawlin' King Snake
TTITLE12=My Mind is Ramblin'
TTITLE13=Commit a Crime
TTITLE14=Dust My Broom
TTITLE15=I'm the Wolf (acoustic solo)
TTITLE16=Ain't Goin' Down That Dirt Road (acoustic solo)
TTITLE17=Mary Sue
TTITLE18=Hard Luck
TTITLE19=The Red Rooster (London Sessions with false start and dialog)
TTITLE20=Moving
EXTD=
EXTT0=
EXTT1=
EXTT2=
EXTT3=
EXTT4=
EXTT5=
EXTT6=
EXTT7=
EXTT8=
EXTT9=
EXTT10=
EXTT11=
EXTT12=
EXTT13=
EXTT14=
EXTT15=
EXTT16=
EXTT17=
EXTT18=
EXTT19=
EXTT20=
PLAYORDER=
